<svg width="0" height="0" class="hidden">
  <symbol fill="none" xmlns="http://www.w3.org/2000/svg" viewBox="0 0 24 24" id="basket">
    <path fill-rule="evenodd" clip-rule="evenodd" d="M19.5799 8.99991H20.9999C21.1538 8.99936 21.3057 9.0344 21.4438 9.1023C21.5819 9.17019 21.7024 9.2691 21.7959 9.39129C21.8895 9.51348 21.9535 9.65565 21.983 9.80668C22.0124 9.95771 22.0066 10.1135 21.9659 10.2619L19.1669 20.5249C18.9289 21.3949 18.1349 21.9999 17.2369 21.9999H6.7639C6.32538 21.9992 5.89918 21.8548 5.55059 21.5887C5.20201 21.3227 4.95025 20.9497 4.8339 20.5269L2.0349 10.2629C1.99467 10.1146 1.98914 9.95894 2.01874 9.80812C2.04834 9.65729 2.11228 9.51531 2.2056 9.39318C2.29891 9.27104 2.4191 9.17204 2.55685 9.10384C2.69459 9.03564 2.84619 9.00008 2.9999 8.99991H4.4199L8.1319 2.50391L9.8689 3.49591L6.7229 8.99991H17.2769L14.1319 3.49591L15.8679 2.50391L19.5799 8.99991ZM6.7639 19.9999H17.2359L19.6899 10.9999H4.3099L6.7639 19.9999ZM10.9999 12.9999H8.99988V17.9999H10.9999V12.9999ZM14.9999 12.9999H12.9999V17.9999H14.9999V12.9999Z" fill="#222222"></path>
  </symbol>
  <symbol fill="none" xmlns="http://www.w3.org/2000/svg" viewBox="0 0 24 24" id="close">
    <path d="M19 6.41L17.59 5L12 10.59L6.41 5L5 6.41L10.59 12L5 17.59L6.41 19L12 13.41L17.59 19L19 17.59L13.41 12L19 6.41Z" fill="#222222"></path>
  </symbol>
  <symbol fill="none" xmlns="http://www.w3.org/2000/svg" viewBox="0 0 24 25" id="copy">
    <path d="M19 21.5H8V7.5H19M19 5.5H8C7.46957 5.5 6.96086 5.71071 6.58579 6.08579C6.21071 6.46086 6 6.96957 6 7.5V21.5C6 22.0304 6.21071 22.5391 6.58579 22.9142C6.96086 23.2893 7.46957 23.5 8 23.5H19C19.5304 23.5 20.0391 23.2893 20.4142 22.9142C20.7893 22.5391 21 22.0304 21 21.5V7.5C21 6.96957 20.7893 6.46086 20.4142 6.08579C20.0391 5.71071 19.5304 5.5 19 5.5ZM16 1.5H4C3.46957 1.5 2.96086 1.71071 2.58579 2.08579C2.21071 2.46086 2 2.96957 2 3.5V17.5H4V3.5H16V1.5Z" fill="#222222"></path>
  </symbol>
  <symbol fill="none" xmlns="http://www.w3.org/2000/svg" viewBox="0 0 24 24" id="arrow-circle">
    <path d="M3 2V8H9" stroke="#222222" stroke-width="2" stroke-linecap="round" stroke-linejoin="round"></path>
    <path d="M21 12.0001C20.9984 10.2634 20.4944 8.56429 19.5487 7.10764C18.6031 5.651 17.2562 4.49907 15.6705 3.79079C14.0848 3.08252 12.3281 2.84815 10.6121 3.11596C8.89623 3.38377 7.29445 4.14232 6 5.30011L3 8.00011" stroke="#222222" stroke-width="2" stroke-linecap="round" stroke-linejoin="round"></path>
    <path d="M21 22V16H15" stroke="#222222" stroke-width="2" stroke-linecap="round" stroke-linejoin="round"></path>
    <path d="M3 12C3.00158 13.7367 3.5056 15.4358 4.45125 16.8925C5.39691 18.3491 6.74382 19.501 8.32951 20.2093C9.9152 20.9176 11.6719 21.152 13.3879 20.8841C15.1038 20.6163 16.7056 19.8578 18 18.7L21 16" stroke="#222222" stroke-width="2" stroke-linecap="round" stroke-linejoin="round"></path>
  </symbol>
  <symbol fill="none" xmlns="http://www.w3.org/2000/svg" viewBox="0 0 24 24" id="credit_card">
    <path d="M20 8H4V6H20M20 18H4V12H20M20 4H4C2.89 4 2 4.89 2 6V18C2 18.5304 2.21071 19.0391 2.58579 19.4142C2.96086 19.7893 3.46957 20 4 20H20C20.5304 20 21.0391 19.7893 21.4142 19.4142C21.7893 19.0391 22 18.5304 22 18V6C22 5.46957 21.7893 4.96086 21.4142 4.58579C21.0391 4.21071 20.5304 4 20 4Z" fill="#222222"></path>
  </symbol>
  <symbol fill="none" xmlns="http://www.w3.org/2000/svg" viewBox="0 0 24 24" id="arrow-right">
    <path d="M5 12H19" stroke="#222222" stroke-width="3" stroke-linecap="round" stroke-linejoin="round"></path>
    <path d="M12 5L19 12L12 19" stroke="#222222" stroke-width="3" stroke-linecap="round" stroke-linejoin="round"></path>
  </symbol>
  <symbol fill="none" xmlns="http://www.w3.org/2000/svg" viewBox="0 0 24 24" id="filter-1">
    <g clip-path="url(#clip0_344_10114)">
      <path fill-rule="evenodd" clip-rule="evenodd" d="M16 15C17.306 15 18.418 15.835 18.83 17H20C20.2652 17 20.5196 17.1054 20.7071 17.2929C20.8946 17.4804 21 17.7348 21 18C21 18.2652 20.8946 18.5196 20.7071 18.7071C20.5196 18.8946 20.2652 19 20 19H18.83C18.6234 19.5855 18.2403 20.0926 17.7334 20.4512C17.2265 20.8099 16.6209 21.0025 16 21.0025C15.3791 21.0025 14.7735 20.8099 14.2666 20.4512C13.7597 20.0926 13.3766 19.5855 13.17 19H4C3.73478 19 3.48043 18.8946 3.29289 18.7071C3.10536 18.5196 3 18.2652 3 18C3 17.7348 3.10536 17.4804 3.29289 17.2929C3.48043 17.1054 3.73478 17 4 17H13.17C13.377 16.4149 13.7603 15.9084 14.2671 15.5502C14.774 15.1921 15.3794 14.9998 16 15ZM16 17C15.7348 17 15.4804 17.1054 15.2929 17.2929C15.1054 17.4804 15 17.7348 15 18C15 18.2652 15.1054 18.5196 15.2929 18.7071C15.4804 18.8946 15.7348 19 16 19C16.2652 19 16.5196 18.8946 16.7071 18.7071C16.8946 18.5196 17 18.2652 17 18C17 17.7348 16.8946 17.4804 16.7071 17.2929C16.5196 17.1054 16.2652 17 16 17ZM8 9C8.58899 8.99992 9.16497 9.17322 9.65613 9.49829C10.1473 9.82336 10.5319 10.2858 10.762 10.828L10.829 11H20C20.2549 11.0003 20.5 11.0979 20.6854 11.2728C20.8707 11.4478 20.9822 11.687 20.9972 11.9414C21.0121 12.1958 20.9293 12.4464 20.7657 12.6418C20.6021 12.8373 20.3701 12.9629 20.117 12.993L20 13H10.83C10.6284 13.5703 10.2592 14.0663 9.77073 14.4231C9.28229 14.7799 8.69744 14.9808 8.09285 14.9994C7.48827 15.018 6.89217 14.8534 6.38273 14.5273C5.87328 14.2012 5.47427 13.7288 5.238 13.172L5.17 13H4C3.74512 12.9997 3.49997 12.9021 3.31463 12.7272C3.1293 12.5522 3.01777 12.313 3.00283 12.0586C2.98789 11.8042 3.07067 11.5536 3.23426 11.3582C3.39786 11.1627 3.6299 11.0371 3.883 11.007L4 11H5.17C5.37701 10.4149 5.76032 9.90842 6.26715 9.55024C6.77397 9.19206 7.37938 8.99982 8 9ZM8 11C7.73478 11 7.48043 11.1054 7.29289 11.2929C7.10536 11.4804 7 11.7348 7 12C7 12.2652 7.10536 12.5196 7.29289 12.7071C7.48043 12.8946 7.73478 13 8 13C8.26522 13 8.51957 12.8946 8.70711 12.7071C8.89464 12.5196 9 12.2652 9 12C9 11.7348 8.89464 11.4804 8.70711 11.2929C8.51957 11.1054 8.26522 11 8 11ZM16 3C17.306 3 18.418 3.835 18.83 5H20C20.2652 5 20.5196 5.10536 20.7071 5.29289C20.8946 5.48043 21 5.73478 21 6C21 6.26522 20.8946 6.51957 20.7071 6.70711C20.5196 6.89464 20.2652 7 20 7H18.83C18.6234 7.58553 18.2403 8.09257 17.7334 8.45121C17.2265 8.80985 16.6209 9.00245 16 9.00245C15.3791 9.00245 14.7735 8.80985 14.2666 8.45121C13.7597 8.09257 13.3766 7.58553 13.17 7H4C3.73478 7 3.48043 6.89464 3.29289 6.70711C3.10536 6.51957 3 6.26522 3 6C3 5.73478 3.10536 5.48043 3.29289 5.29289C3.48043 5.10536 3.73478 5 4 5H13.17C13.377 4.41493 13.7603 3.90842 14.2671 3.55024C14.774 3.19206 15.3794 2.99982 16 3ZM16 5C15.7348 5 15.4804 5.10536 15.2929 5.29289C15.1054 5.48043 15 5.73478 15 6C15 6.26522 15.1054 6.51957 15.2929 6.70711C15.4804 6.89464 15.7348 7 16 7C16.2652 7 16.5196 6.89464 16.7071 6.70711C16.8946 6.51957 17 6.26522 17 6C17 5.73478 16.8946 5.48043 16.7071 5.29289C16.5196 5.10536 16.2652 5 16 5Z" fill="#222222"></path>
    </g>
    <defs>
      <clipPath id="clip0_344_10114">
        <rect width="24" height="24" fill="white"></rect>
      </clipPath>
    </defs>
  </symbol>
  <symbol fill="none" xmlns="http://www.w3.org/2000/svg" viewBox="0 0 24 24" id="bank_transfer">
    <path d="M15 15V12H18V10L22 13.5L18 17V15H15ZM14 8.7V10H2V8.7L8 5L14 8.7ZM2 17H14V19H2V17ZM7 11H9V16H7V11ZM3 11H5V16H3V11ZM11 11H13V16H11V11Z" fill="#222222"></path>
  </symbol>
  <symbol fill="none" xmlns="http://www.w3.org/2000/svg" viewBox="0 0 24 25" id="expand">
    <path d="M12 16.1456L6 10.1456L7.4 8.74561L12 13.3456L16.6 8.74561L18 10.1456L12 16.1456Z" fill="#222222"></path>
  </symbol>
  <symbol fill="none" xmlns="http://www.w3.org/2000/svg" viewBox="0 0 24 24" id="croissant">
    <path d="M11.9325 13.5938L18.8325 7.21875C18.9343 7.11665 19.0122 6.99324 19.0605 6.85741C19.1089 6.72159 19.1266 6.57674 19.1122 6.43327C19.0979 6.28981 19.0519 6.1513 18.9776 6.02774C18.9033 5.90419 18.8025 5.79866 18.6825 5.71875C14.1825 3.09375 9.68245 3.09375 5.10745 5.71875C4.98744 5.79866 4.88666 5.90419 4.81234 6.02774C4.73803 6.1513 4.69204 6.28981 4.67769 6.43327C4.66334 6.57674 4.681 6.72159 4.72937 6.85741C4.77775 6.99324 4.85564 7.11665 4.95745 7.21875L11.9325 13.5938Z" stroke="#222222" stroke-width="2" stroke-linecap="round" stroke-linejoin="round"></path>
    <path d="M11.9321 13.5937H2.78206C2.57524 13.5948 2.37124 13.5456 2.18767 13.4503C2.00409 13.3551 1.84646 13.2166 1.72835 13.0468C1.61024 12.877 1.5352 12.681 1.50972 12.4758C1.48423 12.2705 1.50906 12.0622 1.58206 11.8687C2.16489 9.98683 3.41954 8.38514 5.10705 7.36865" stroke="#222222" stroke-width="2" stroke-linecap="round" stroke-linejoin="round"></path>
    <path d="M11.9316 13.5937H21.0066C21.2135 13.5948 21.4175 13.5456 21.601 13.4503C21.7846 13.3551 21.9422 13.2166 22.0603 13.0468C22.1785 12.877 22.2535 12.681 22.279 12.4758C22.3045 12.2705 22.2796 12.0622 22.2066 11.8687C21.6238 9.98683 20.3691 8.38514 18.6816 7.36865" stroke="#222222" stroke-width="2" stroke-linecap="round" stroke-linejoin="round"></path>
    <path d="M2.33202 13.5938C2.03202 15.7688 2.78202 17.9437 4.20702 20.1187L11.182 13.5938" stroke="#222222" stroke-width="2" stroke-linecap="round" stroke-linejoin="round"></path>
    <path d="M21.4566 13.5938C21.7566 15.7688 21.0066 17.9437 19.5816 20.1187L12.6816 13.5938" stroke="#222222" stroke-width="2" stroke-linecap="round" stroke-linejoin="round"></path>
  </symbol>
  <symbol fill="none" xmlns="http://www.w3.org/2000/svg" viewBox="0 0 24 24" id="dish 1">
    <path d="M1.5 12H22.05V13.95C22.05 15.8795 21.2835 17.7299 19.9192 19.0942C18.5549 20.4585 16.7045 21.225 14.775 21.225H8.77501C6.84556 21.225 4.99513 20.4585 3.6308 19.0942C2.26647 17.7299 1.5 15.8795 1.5 13.95V12Z" stroke="#222222" stroke-width="2" stroke-linecap="round" stroke-linejoin="round"></path>
    <path d="M2.1748 3.2251H2.47478C3.84727 3.2251 5.16355 3.77032 6.13405 4.74082C7.10455 5.71132 7.6498 7.0276 7.6498 8.40009H7.34978C5.97728 8.40009 4.66101 7.85487 3.69051 6.88437C2.72001 5.91387 2.1748 4.59759 2.1748 3.2251Z" stroke="#222222" stroke-width="2" stroke-linejoin="round"></path>
    <path d="M9.75 4.65001C9.87202 3.98106 10.2233 3.37552 10.7434 2.93752C11.2636 2.49951 11.92 2.2564 12.6 2.25C13.3698 2.26902 14.1028 2.58331 14.6472 3.12778C15.1917 3.67226 15.506 4.40525 15.525 5.17502C15.5118 5.48001 15.4614 5.78223 15.375 6.075L16.275 5.92502C17.0448 5.94403 17.7777 6.2583 18.3222 6.80278C18.8667 7.34726 19.181 8.08024 19.2 8.85001" stroke="#222222" stroke-width="2" stroke-linecap="round" stroke-linejoin="round"></path>
    <path d="M15.2246 9.07495C14.429 9.07495 13.6659 8.75888 13.1033 8.19627C12.5407 7.63366 12.2246 6.8706 12.2246 6.07495" stroke="#222222" stroke-width="2" stroke-linecap="round" stroke-linejoin="round"></path>
  </symbol>
  <symbol fill="none" xmlns="http://www.w3.org/2000/svg" viewBox="0 0 24 24" id="account_circle">
    <path d="M5.55098 18.1655C6.60098 17.4989 7.63848 16.9947 8.66348 16.653C9.68848 16.3114 10.801 16.1405 12.001 16.1405C13.201 16.1405 14.3176 16.3114 15.351 16.653C16.3843 16.9947 17.426 17.4989 18.476 18.1655C19.2093 17.2655 19.7301 16.3572 20.0385 15.4405C20.3468 14.5239 20.501 13.5572 20.501 12.5405C20.501 10.1239 19.6885 8.10303 18.0635 6.47803C16.4385 4.85303 14.4176 4.04053 12.001 4.04053C9.58431 4.04053 7.56348 4.85303 5.93848 6.47803C4.31348 8.10303 3.50098 10.1239 3.50098 12.5405C3.50098 13.5572 3.65931 14.5239 3.97598 15.4405C4.29264 16.3572 4.81764 17.2655 5.55098 18.1655ZM11.9963 13.2905C11.0328 13.2905 10.2218 12.9598 9.56348 12.2984C8.90514 11.6369 8.57598 10.8244 8.57598 9.86088C8.57598 8.89731 8.90669 8.08636 9.56813 7.42803C10.2296 6.76969 11.0421 6.44053 12.0056 6.44053C12.9692 6.44053 13.7801 6.77124 14.4385 7.43268C15.0968 8.09411 15.426 8.90661 15.426 9.87018C15.426 10.8337 15.0953 11.6447 14.4338 12.303C13.7724 12.9614 12.9599 13.2905 11.9963 13.2905ZM11.9909 22.5405C10.6051 22.5405 9.30279 22.278 8.08398 21.753C6.86516 21.228 5.80495 20.5114 4.90335 19.603C4.00177 18.6947 3.29264 17.6335 2.77598 16.4195C2.25931 15.2055 2.00098 13.9083 2.00098 12.528C2.00098 11.1477 2.26348 9.85055 2.78848 8.63655C3.31348 7.42254 4.03014 6.36553 4.93848 5.46553C5.84681 4.56553 6.90799 3.85303 8.122 3.32803C9.336 2.80303 10.6332 2.54053 12.0135 2.54053C13.3938 2.54053 14.691 2.80303 15.905 3.32803C17.119 3.85303 18.176 4.56553 19.076 5.46553C19.976 6.36553 20.6885 7.42386 21.2135 8.64053C21.7385 9.85719 22.001 11.155 22.001 12.5339C22.001 13.9128 21.7385 15.2086 21.2135 16.4214C20.6885 17.6341 19.976 18.6947 19.076 19.603C18.176 20.5114 17.1166 21.228 15.8978 21.753C14.6789 22.278 13.3766 22.5405 11.9909 22.5405Z" fill="#222222"></path>
  </symbol>
  <symbol fill="none" xmlns="http://www.w3.org/2000/svg" viewBox="0 0 24 24" id="arrow_play">
    <path d="M8 5V19L19 12L8 5Z" fill="#222222"></path>
  </symbol>
  <symbol fill="none" xmlns="http://www.w3.org/2000/svg" viewBox="0 0 24 24" id="arrow_right_simple">
    <path d="M8.02489 22.1912L6.05859 20.2249L14.2836 11.9999L6.05859 3.77489L8.02489 1.80859L18.2162 11.9999L8.02489 22.1912Z" fill="#222222"></path>
  </symbol>
  <symbol fill="none" xmlns="http://www.w3.org/2000/svg" viewBox="0 0 24 24" id="calendar_repeat">
    <path d="M5 22C4.45 22 3.97917 21.8042 3.5875 21.4125C3.19583 21.0208 3 20.55 3 20V6C3 5.45 3.19583 4.97917 3.5875 4.5875C3.97917 4.19583 4.45 4 5 4H6V2H8V4H16V2H18V4H19C19.55 4 20.0208 4.19583 20.4125 4.5875C20.8042 4.97917 21 5.45 21 6V12H19V10H5V20H12V22H5ZM19 24C17.7833 24 16.7208 23.6208 15.8125 22.8625C14.9042 22.1042 14.3333 21.15 14.1 20H15.65C15.8667 20.7333 16.2792 21.3333 16.8875 21.8C17.4958 22.2667 18.2 22.5 19 22.5C19.9667 22.5 20.7917 22.1583 21.475 21.475C22.1583 20.7917 22.5 19.9667 22.5 19C22.5 18.0333 22.1583 17.2083 21.475 16.525C20.7917 15.8417 19.9667 15.5 19 15.5C18.5167 15.5 18.0667 15.5875 17.65 15.7625C17.2333 15.9375 16.8667 16.1833 16.55 16.5H18V18H14V14H15.5V15.425C15.95 14.9917 16.475 14.6458 17.075 14.3875C17.675 14.1292 18.3167 14 19 14C20.3833 14 21.5625 14.4875 22.5375 15.4625C23.5125 16.4375 24 17.6167 24 19C24 20.3833 23.5125 21.5625 22.5375 22.5375C21.5625 23.5125 20.3833 24 19 24Z" fill="#222222"></path>
  </symbol>
  <symbol fill="none" xmlns="http://www.w3.org/2000/svg" viewBox="0 0 25 25" id="dish 3">
    <path d="M1.75 23.8501H23.725" stroke="#222222" stroke-width="2" stroke-linecap="round" stroke-linejoin="round"></path>
    <path d="M3.02539 21.1501C3.42888 18.8517 4.62545 16.7675 6.40688 15.2601C8.18832 13.7527 10.4419 12.9176 12.7754 12.9001C15.1042 12.9056 17.3553 13.7381 19.1274 15.2491C20.8994 16.7601 22.0771 18.8515 22.4504 21.1501" stroke="#222222" stroke-width="2" stroke-linecap="round" stroke-linejoin="round"></path>
    <path d="M12.7752 12.8251C13.8522 12.8251 14.7252 11.952 14.7252 10.8751C14.7252 9.7981 13.8522 8.92505 12.7752 8.92505C11.6982 8.92505 10.8252 9.7981 10.8252 10.8751C10.8252 11.952 11.6982 12.8251 12.7752 12.8251Z" stroke="#222222" stroke-width="2" stroke-linecap="round" stroke-linejoin="round"></path>
    <path d="M12.7754 3V5.77499" stroke="#222222" stroke-width="2" stroke-linecap="round" stroke-linejoin="round"></path>
    <path d="M7 4.875V7.575" stroke="#222222" stroke-width="2" stroke-linecap="round" stroke-linejoin="round"></path>
    <path d="M18.5498 4.875V7.575" stroke="#222222" stroke-width="2" stroke-linecap="round" stroke-linejoin="round"></path>
  </symbol>
  <symbol fill="none" xmlns="http://www.w3.org/2000/svg" viewBox="0 0 24 24" id="filter">
    <path d="M15.0001 19.88C15.0401 20.18 14.9401 20.5 14.7101 20.71C14.6176 20.8027 14.5077 20.8762 14.3868 20.9264C14.2658 20.9766 14.1361 21.0024 14.0051 21.0024C13.8742 21.0024 13.7445 20.9766 13.6235 20.9264C13.5025 20.8762 13.3926 20.8027 13.3001 20.71L9.29013 16.7C9.18107 16.5934 9.09814 16.463 9.04783 16.319C8.99752 16.175 8.9812 16.0213 9.00013 15.87V10.75L4.21013 4.62C4.04774 4.41153 3.97446 4.14726 4.00632 3.88493C4.03817 3.6226 4.17257 3.38355 4.38013 3.22C4.57013 3.08 4.78013 3 5.00013 3H19.0001C19.2201 3 19.4301 3.08 19.6201 3.22C19.8277 3.38355 19.9621 3.6226 19.9939 3.88493C20.0258 4.14726 19.9525 4.41153 19.7901 4.62L15.0001 10.75V19.88ZM7.04013 5L11.0001 10.06V15.58L13.0001 17.58V10.05L16.9601 5H7.04013Z" fill="#222222"></path>
  </symbol>
  <symbol fill="none" xmlns="http://www.w3.org/2000/svg" viewBox="0 0 24 24" id="arrow_left_simple">
    <path d="M15.9751 1.80881L17.9414 3.77511L9.71641 12.0001L17.9414 20.2251L15.9751 22.1914L5.78381 12.0001L15.9751 1.80881Z" fill="#222222"></path>
  </symbol>
  <symbol fill="none" xmlns="http://www.w3.org/2000/svg" viewBox="0 0 24 24" id="edit">
    <path d="M19.3 8.925L15.05 4.725L16.45 3.325C16.8333 2.94167 17.3042 2.75 17.8625 2.75C18.4208 2.75 18.8917 2.94167 19.275 3.325L20.675 4.725C21.0583 5.10833 21.2583 5.57083 21.275 6.1125C21.2917 6.65417 21.1083 7.11667 20.725 7.5L19.3 8.925ZM17.85 10.4L7.25 21H3V16.75L13.6 6.15L17.85 10.4Z" fill="#222222"></path>
  </symbol>
  <symbol fill="none" xmlns="http://www.w3.org/2000/svg" viewBox="0 0 24 24" id="french fries">
    <path d="M11.9252 19.5001C13.4992 19.5001 14.7752 18.2241 14.7752 16.6501C14.7752 15.076 13.4992 13.8 11.9252 13.8C10.3512 13.8 9.0752 15.076 9.0752 16.6501C9.0752 18.2241 10.3512 19.5001 11.9252 19.5001Z" stroke="#222222" stroke-width="1.5" stroke-linecap="round" stroke-linejoin="round"></path>
    <path d="M20.1 8.8501L18.6 22.2001H5.25L3.75 8.8501H7.125C7.5342 9.45908 8.07179 9.97108 8.7 10.3501L9.075 10.5751C9.94788 11.0581 10.9274 11.3159 11.925 11.3251H12C13.0632 11.3033 14.1004 10.9922 15 10.4251C15.6763 10.0231 16.2633 9.48712 16.725 8.8501H20.1Z" stroke="#222222" stroke-width="2" stroke-linecap="round" stroke-linejoin="round"></path>
    <path d="M6.0752 8.85006V2.92505H9.0752V10.3501" stroke="#222222" stroke-width="2" stroke-linecap="round" stroke-linejoin="round"></path>
    <path d="M9.0752 10.575V1.5H12.0002V11.325" stroke="#222222" stroke-width="2" stroke-linecap="round" stroke-linejoin="round"></path>
    <path d="M12 11.325V4.94995H15V10.425" stroke="#222222" stroke-width="2" stroke-linecap="round" stroke-linejoin="round"></path>
    <path d="M15 10.4249V2.3999H18V8.84991" stroke="#222222" stroke-width="2" stroke-linecap="round" stroke-linejoin="round"></path>
  </symbol>
  <symbol fill="none" xmlns="http://www.w3.org/2000/svg" viewBox="0 0 24 24" id="gps_marker">
    <path d="M12.001 8C13.0618 8 14.0793 8.42143 14.8294 9.17157C15.5795 9.92172 16.001 10.9391 16.001 12C16.001 13.0609 15.5795 14.0783 14.8294 14.8284C14.0793 15.5786 13.0618 16 12.001 16C10.9401 16 9.9227 15.5786 9.17255 14.8284C8.4224 14.0783 8.00098 13.0609 8.00098 12C8.00098 10.9391 8.4224 9.92172 9.17255 9.17157C9.9227 8.42143 10.9401 8 12.001 8ZM3.05098 13H1.00098V11H3.05098C3.50098 6.83 6.83098 3.5 11.001 3.05V1H13.001V3.05C17.171 3.5 20.501 6.83 20.951 11H23.001V13H20.951C20.501 17.17 17.171 20.5 13.001 20.95V23H11.001V20.95C6.83098 20.5 3.50098 17.17 3.05098 13ZM12.001 5C10.1445 5 8.36398 5.7375 7.05123 7.05025C5.73847 8.36301 5.00098 10.1435 5.00098 12C5.00098 13.8565 5.73847 15.637 7.05123 16.9497C8.36398 18.2625 10.1445 19 12.001 19C13.8575 19 15.638 18.2625 16.9507 16.9497C18.2635 15.637 19.001 13.8565 19.001 12C19.001 10.1435 18.2635 8.36301 16.9507 7.05025C15.638 5.7375 13.8575 5 12.001 5Z" fill="#222222"></path>
  </symbol>
  <symbol fill="none" xmlns="http://www.w3.org/2000/svg" viewBox="0 0 24 24" id="leaf">
    <path d="M20.7766 5.35663C18.8276 3.88121 15.8274 3 12.7507 3C8.9461 3 5.84566 4.32687 4.24588 6.64074C3.49443 7.72677 3.07871 9.01426 3.00998 10.4649C2.94915 11.7569 3.16658 13.1862 3.65553 14.7235C5.32517 9.72215 9.98934 5.8068 15.3667 5.8068C15.3667 5.8068 10.3352 7.12917 7.17168 11.2268C6.44985 12.156 5.87044 13.1873 5.45248 14.2869C4.55901 16.4124 4.09938 18.6947 4.10054 21H6.35377C6.35377 21 6.01128 18.8504 6.60613 16.379C7.48584 16.5044 8.37295 16.571 9.26155 16.5782C11.3334 16.5782 12.8059 16.1303 13.8976 15.1692C14.8755 14.3082 15.4151 13.1502 15.9863 11.9257C16.8583 10.0541 17.8463 7.93385 20.7158 6.29636C20.7968 6.25023 20.865 6.18476 20.9144 6.1058C20.9638 6.02685 20.9928 5.93689 20.9988 5.84398C21.0048 5.75107 20.9877 5.65812 20.9489 5.57346C20.9102 5.4888 20.851 5.41507 20.7766 5.35888V5.35663Z" fill="#222222"></path>
  </symbol>
  <symbol fill="none" xmlns="http://www.w3.org/2000/svg" viewBox="0 0 24 24" id="map_marker">
    <path d="M12 2C9.89206 1.99989 7.86926 2.83176 6.37124 4.31479C4.87323 5.79782 4.02108 7.81216 4 9.92C4 15.4 11.05 21.5 11.35 21.76C11.5311 21.9149 11.7616 22.0001 12 22.0001C12.2384 22.0001 12.4689 21.9149 12.65 21.76C13 21.5 20 15.4 20 9.92C19.9789 7.81216 19.1268 5.79782 17.6288 4.31479C16.1307 2.83176 14.1079 1.99989 12 2ZM12 19.65C10.33 18.06 6 13.65 6 9.92C6 8.3287 6.63214 6.80258 7.75736 5.67736C8.88258 4.55214 10.4087 3.92 12 3.92C13.5913 3.92 15.1174 4.55214 16.2426 5.67736C17.3679 6.80258 18 8.3287 18 9.92C18 13.62 13.67 18.06 12 19.65Z" fill="#222222"></path>
    <path d="M12 6C11.3078 6 10.6311 6.20527 10.0555 6.58986C9.47993 6.97444 9.03133 7.52107 8.76642 8.16061C8.50152 8.80015 8.4322 9.50388 8.56725 10.1828C8.7023 10.8618 9.03564 11.4854 9.52513 11.9749C10.0146 12.4644 10.6383 12.7977 11.3172 12.9327C11.9961 13.0678 12.6999 12.9985 13.3394 12.7336C13.9789 12.4687 14.5256 12.0201 14.9101 11.4445C15.2947 10.8689 15.5 10.1922 15.5 9.5C15.5 8.57174 15.1313 7.6815 14.4749 7.02513C13.8185 6.36875 12.9283 6 12 6ZM12 11C11.7033 11 11.4133 10.912 11.1666 10.7472C10.92 10.5824 10.7277 10.3481 10.6142 10.074C10.5007 9.79994 10.4709 9.49834 10.5288 9.20736C10.5867 8.91639 10.7296 8.64912 10.9393 8.43934C11.1491 8.22956 11.4164 8.0867 11.7074 8.02882C11.9983 7.97094 12.2999 8.00065 12.574 8.11418C12.8481 8.22771 13.0824 8.41997 13.2472 8.66665C13.412 8.91332 13.5 9.20333 13.5 9.5C13.5 9.89782 13.342 10.2794 13.0607 10.5607C12.7794 10.842 12.3978 11 12 11Z" fill="#222222"></path>
  </symbol>
  <symbol fill="none" xmlns="http://www.w3.org/2000/svg" viewBox="0 0 24 24" id="meat 1">
    <path d="M9.60001 16.4971L7.42502 18.6721C7.74912 19.0489 7.93439 19.5253 7.95 20.0221C7.9306 20.5262 7.71663 21.0031 7.35301 21.3527C6.9894 21.7024 6.50444 21.8975 6 21.8971C5.50272 21.8971 5.02581 21.6996 4.67418 21.3479C4.32255 20.9963 4.125 20.5194 4.125 20.0221C3.62772 20.0221 3.15081 19.8246 2.79918 19.4729C2.44755 19.1213 2.25 18.6444 2.25 18.1471C2.24963 17.6427 2.44477 17.1577 2.7944 16.7941C3.14403 16.4305 3.62094 16.2165 4.125 16.1971C4.62177 16.2127 5.09822 16.398 5.47501 16.7221L7.65001 14.5471" stroke="#222222" stroke-width="2" stroke-linecap="round" stroke-linejoin="round"></path>
    <path d="M19.6502 4.49721L20.7752 5.62221C21.4943 6.35189 21.8974 7.33525 21.8974 8.35973C21.8974 9.3842 21.4943 10.3675 20.7752 11.0972L20.3252 11.5472C18.232 13.5902 15.6497 15.0621 12.8252 15.8222L9.67521 16.5722L8.62519 15.5222L7.5752 14.4722L8.4002 11.3222C9.10054 8.49524 10.582 5.92223 12.6752 3.89722L13.1252 3.37221C13.8549 2.6531 14.8382 2.25 15.8627 2.25C16.8872 2.25 17.8705 2.6531 18.6002 3.37221L19.6502 4.49721Z" stroke="#222222" stroke-width="2" stroke-linecap="round" stroke-linejoin="round"></path>
  </symbol>
  <symbol fill="none" xmlns="http://www.w3.org/2000/svg" viewBox="0 0 24 24" id="noodles">
    <path d="M3.4502 13.425C3.4502 15.8319 4.40631 18.1402 6.1082 19.842C7.81009 21.5439 10.1184 22.5001 12.5252 22.5001C14.932 22.5001 17.2403 21.5439 18.9422 19.842C20.6441 18.1402 21.6002 15.8319 21.6002 13.425H3.4502Z" stroke="#222222" stroke-width="2" stroke-linecap="round" stroke-linejoin="round"></path>
    <path d="M5.3252 10.35C5.45809 9.38018 5.93774 8.49132 6.6754 7.84785C7.41307 7.20438 8.35882 6.84985 9.3377 6.84985C10.3166 6.84985 11.2623 7.20438 12 7.84785C12.7376 8.49132 13.2173 9.38018 13.3502 10.35" stroke="#222222" stroke-width="2" stroke-linecap="round" stroke-linejoin="round"></path>
    <path d="M10.7246 6.3751C11.2691 5.75917 11.9388 5.26659 12.689 4.93031C13.4392 4.59402 14.2525 4.42178 15.0746 4.4251C15.8492 4.42503 16.6161 4.5788 17.3308 4.87747C18.0455 5.17614 18.6937 5.61376 19.2379 6.16495C19.7821 6.71614 20.2115 7.36993 20.501 8.08836C20.7906 8.8068 20.9345 9.57558 20.9246 10.3501" stroke="#222222" stroke-width="2" stroke-linecap="round" stroke-linejoin="round"></path>
    <path d="M12.6748 8.17487C13.2599 7.67718 14.0068 7.41045 14.7748 7.42487C15.6372 7.42465 16.4654 7.76202 17.0821 8.36476C17.6989 8.96751 18.0552 9.78772 18.0748 10.6499" stroke="#222222" stroke-width="2" stroke-linecap="round" stroke-linejoin="round"></path>
    <path d="M8.10038 6.6L3.52539 2.25" stroke="#222222" stroke-width="2" stroke-linecap="round" stroke-linejoin="round"></path>
    <path d="M5.625 8.85L3 6.375" stroke="#222222" stroke-width="2" stroke-linecap="round" stroke-linejoin="round"></path>
  </symbol>
  <symbol fill="none" xmlns="http://www.w3.org/2000/svg" viewBox="0 0 25 24" id="overview">
    <path d="M20.8411 20.65L21.5691 19.95L19.6191 18.075V15.275H18.5791V18.475L20.8411 20.65ZM19.0991 22.975C17.7471 22.975 16.5945 22.5125 15.6411 21.5875C14.6878 20.6625 14.2111 19.5667 14.2111 18.3C14.2111 17 14.6878 15.8875 15.6411 14.9625C16.5945 14.0375 17.7471 13.575 19.0991 13.575C20.4338 13.575 21.5821 14.0375 22.5441 14.9625C23.5061 15.8875 23.9871 17 23.9871 18.3C23.9871 19.5667 23.5061 20.6625 22.5441 21.5875C21.5821 22.5125 20.4338 22.975 19.0991 22.975ZM7.32113 8.5H17.7211V7H7.32113V8.5ZM13.3011 21H4.72113C4.2878 21 3.91947 20.8542 3.61613 20.5625C3.3128 20.2708 3.16113 19.9167 3.16113 19.5V4.5C3.16113 4.08333 3.3128 3.72917 3.61613 3.4375C3.91947 3.14583 4.2878 3 4.72113 3H20.3211C20.7545 3 21.1228 3.14583 21.4261 3.4375C21.7295 3.72917 21.8811 4.08333 21.8811 4.5V12.725C21.4478 12.5083 20.9971 12.35 20.5291 12.25C20.0611 12.15 19.5845 12.1 19.0991 12.1C18.8565 12.1 18.6225 12.1125 18.3971 12.1375C18.1718 12.1625 17.9465 12.2 17.7211 12.25V11.25H7.32113V12.75H16.2651C15.6411 13.05 15.0821 13.4375 14.5881 13.9125C14.0941 14.3875 13.6911 14.9167 13.3791 15.5H7.32113V17H12.8071C12.7551 17.2167 12.7161 17.4333 12.6901 17.65C12.6641 17.8667 12.6511 18.0917 12.6511 18.325C12.6511 18.8083 12.7031 19.2667 12.8071 19.7C12.9111 20.1333 13.0758 20.5667 13.3011 21Z" fill="#222222"></path>
  </symbol>
  <symbol fill="none" xmlns="http://www.w3.org/2000/svg" viewBox="0 0 24 24" id="pause_circle">
    <path d="M9.25 16.0007H10.75V8.00073H9.25V16.0007ZM13.25 16.0007H14.75V8.00073H13.25V16.0007ZM12 22.0007C10.6333 22.0007 9.34167 21.7382 8.125 21.2132C6.90833 20.6882 5.84583 19.9716 4.9375 19.0632C4.02917 18.1549 3.3125 17.0924 2.7875 15.8757C2.2625 14.6591 2 13.3674 2 12.0007C2 10.6174 2.2625 9.3174 2.7875 8.10073C3.3125 6.88407 4.02917 5.82573 4.9375 4.92573C5.84583 4.02573 6.90833 3.31323 8.125 2.78823C9.34167 2.26323 10.6333 2.00073 12 2.00073C13.3833 2.00073 14.6833 2.26323 15.9 2.78823C17.1167 3.31323 18.175 4.02573 19.075 4.92573C19.975 5.82573 20.6875 6.88407 21.2125 8.10073C21.7375 9.3174 22 10.6174 22 12.0007C22 13.3674 21.7375 14.6591 21.2125 15.8757C20.6875 17.0924 19.975 18.1549 19.075 19.0632C18.175 19.9716 17.1167 20.6882 15.9 21.2132C14.6833 21.7382 13.3833 22.0007 12 22.0007Z" fill="#222222"></path>
  </symbol>
  <symbol fill="none" xmlns="http://www.w3.org/2000/svg" viewBox="0 0 24 25" id="payments">
    <path d="M2.49902 20.5398C2.08652 20.5398 1.7334 20.3929 1.43965 20.0992C1.1459 19.8054 0.999023 19.4523 0.999023 19.0398V7.53979H2.49902V19.0398H19.999V20.5398H2.49902ZM5.49902 17.5398C5.08652 17.5398 4.7334 17.3929 4.43965 17.0992C4.1459 16.8054 3.99902 16.4523 3.99902 16.0398V6.03979C3.99902 5.62729 4.1459 5.27417 4.43965 4.98042C4.7334 4.68667 5.08652 4.53979 5.49902 4.53979H21.499C21.9115 4.53979 22.2646 4.68667 22.5584 4.98042C22.8521 5.27417 22.999 5.62729 22.999 6.03979V16.0398C22.999 16.4523 22.8521 16.8054 22.5584 17.0992C22.2646 17.3929 21.9115 17.5398 21.499 17.5398H5.49902ZM7.99902 16.0398C7.99902 15.3398 7.75736 14.7481 7.27402 14.2648C6.79069 13.7815 6.19902 13.5398 5.49902 13.5398V16.0398H7.99902ZM18.999 16.0398H21.499V13.5398C20.799 13.5398 20.2074 13.7815 19.724 14.2648C19.2407 14.7481 18.999 15.3398 18.999 16.0398ZM13.499 14.0398C14.3324 14.0398 15.0407 13.7481 15.624 13.1648C16.2074 12.5815 16.499 11.8731 16.499 11.0398C16.499 10.2065 16.2074 9.49813 15.624 8.91479C15.0407 8.33146 14.3324 8.03979 13.499 8.03979C12.6657 8.03979 11.9574 8.33146 11.374 8.91479C10.7907 9.49813 10.499 10.2065 10.499 11.0398C10.499 11.8731 10.7907 12.5815 11.374 13.1648C11.9574 13.7481 12.6657 14.0398 13.499 14.0398ZM5.49902 8.53979C6.19902 8.53979 6.79069 8.29813 7.27402 7.81479C7.75736 7.33146 7.99902 6.73979 7.99902 6.03979H5.49902V8.53979ZM21.499 8.53979V6.03979H18.999C18.999 6.73979 19.2407 7.33146 19.724 7.81479C20.2074 8.29813 20.799 8.53979 21.499 8.53979Z" fill="#222222"></path>
  </symbol>
  <symbol fill="none" xmlns="http://www.w3.org/2000/svg" viewBox="0 0 24 25" id="person_add">
    <path d="M18 14.541V11.541H15V9.54102H18V6.54102H20V9.54102H23V11.541H20V14.541H18ZM9 12.541C7.9 12.541 6.95833 12.1493 6.175 11.366C5.39167 10.5827 5 9.64102 5 8.54102C5 7.44102 5.39167 6.49935 6.175 5.71602C6.95833 4.93268 7.9 4.54102 9 4.54102C10.1 4.54102 11.0417 4.93268 11.825 5.71602C12.6083 6.49935 13 7.44102 13 8.54102C13 9.64102 12.6083 10.5827 11.825 11.366C11.0417 12.1493 10.1 12.541 9 12.541ZM1 20.541V17.741C1 17.1743 1.14583 16.6535 1.4375 16.1785C1.72917 15.7035 2.11667 15.341 2.6 15.091C3.63333 14.5743 4.68333 14.1868 5.75 13.9285C6.81667 13.6702 7.9 13.541 9 13.541C10.1 13.541 11.1833 13.6702 12.25 13.9285C13.3167 14.1868 14.3667 14.5743 15.4 15.091C15.8833 15.341 16.2708 15.7035 16.5625 16.1785C16.8542 16.6535 17 17.1743 17 17.741V20.541H1Z" fill="#222222"></path>
  </symbol>
  <symbol fill="none" xmlns="http://www.w3.org/2000/svg" viewBox="0 0 24 24" id="plus">
    <path d="M12 5V19" stroke="#222222" stroke-width="3" stroke-linecap="round" stroke-linejoin="round"></path>
    <path d="M5 12H19" stroke="#222222" stroke-width="3" stroke-linecap="round" stroke-linejoin="round"></path>
  </symbol>
  <symbol viewBox="0 0 16 16" fill="none" id="minus">
    <path d="M12.666 8L3.33268 8" stroke="#222222" stroke-width="3" stroke-linecap="round" stroke-linejoin="round"/>
  </symbol>
  <symbol fill="none" xmlns="http://www.w3.org/2000/svg" viewBox="0 0 24 24" id="star">
    <path d="M12 17.27L18.18 21L16.54 13.97L22 9.24L14.81 8.62L12 2L9.19 8.62L2 9.24L7.45 13.97L5.82 21L12 17.27Z" fill="#222222"></path>
  </symbol>
  <symbol fill="none" xmlns="http://www.w3.org/2000/svg" viewBox="0 0 24 24" id="search">
    <path d="M15.5 14H14.71L14.43 13.73C15.4439 12.554 16.0011 11.0527 16 9.5C16 8.21442 15.6188 6.95772 14.9046 5.8888C14.1903 4.81988 13.1752 3.98676 11.9874 3.49479C10.7997 3.00282 9.49279 2.87409 8.23192 3.1249C6.97104 3.3757 5.81285 3.99477 4.90381 4.90381C3.99477 5.81285 3.3757 6.97104 3.1249 8.23192C2.87409 9.49279 3.00282 10.7997 3.49479 11.9874C3.98676 13.1752 4.81988 14.1903 5.8888 14.9046C6.95772 15.6188 8.21442 16 9.5 16C11.11 16 12.59 15.41 13.73 14.43L14 14.71V15.5L19 20.49L20.49 19L15.5 14ZM9.5 14C7.01 14 5 11.99 5 9.5C5 7.01 7.01 5 9.5 5C11.99 5 14 7.01 14 9.5C14 11.99 11.99 14 9.5 14Z" fill="#222222"></path>
  </symbol>
  <symbol fill="none" xmlns="http://www.w3.org/2000/svg" viewBox="0 0 24 24" id="truck">
    <path d="M5.60393 19.9875C4.78529 19.9875 4.08848 19.7006 3.51348 19.127C2.93848 18.5534 2.65098 17.8569 2.65098 17.0375H1.00098V5.51245C1.00098 5.11245 1.15098 4.76245 1.45098 4.46245C1.75098 4.16245 2.10098 4.01245 2.50098 4.01245H16.976V8.18745H19.601L23.001 12.7125V17.0375H21.226C21.226 17.8569 20.9395 18.5534 20.3664 19.127C19.7934 19.7006 19.0975 19.9875 18.2789 19.9875C17.4603 19.9875 16.7635 19.7006 16.1885 19.127C15.6135 18.5534 15.326 17.8569 15.326 17.0375H8.55098C8.55098 17.8541 8.26446 18.55 7.69143 19.125C7.11838 19.7 6.42254 19.9875 5.60393 19.9875ZM5.60098 18.4875C6.00098 18.4875 6.34264 18.3458 6.62598 18.0625C6.90931 17.7791 7.05098 17.4375 7.05098 17.0375C7.05098 16.6375 6.90931 16.2958 6.62598 16.0125C6.34264 15.7291 6.00098 15.5875 5.60098 15.5875C5.20098 15.5875 4.85931 15.7291 4.57598 16.0125C4.29264 16.2958 4.15098 16.6375 4.15098 17.0375C4.15098 17.4375 4.29264 17.7791 4.57598 18.0625C4.85931 18.3458 5.20098 18.4875 5.60098 18.4875ZM18.276 18.4875C18.676 18.4875 19.0176 18.3458 19.301 18.0625C19.5843 17.7791 19.726 17.4375 19.726 17.0375C19.726 16.6375 19.5843 16.2958 19.301 16.0125C19.0176 15.7291 18.676 15.5875 18.276 15.5875C17.876 15.5875 17.5343 15.7291 17.251 16.0125C16.9676 16.2958 16.826 16.6375 16.826 17.0375C16.826 17.4375 16.9676 17.7791 17.251 18.0625C17.5343 18.3458 17.876 18.4875 18.276 18.4875ZM16.976 13.3875H21.626L18.851 9.68745H16.976V13.3875Z" fill="#222222"></path>
  </symbol>
</svg>